PathFileType	4	(X/Y/Z)	Patient4_TMGait_0pt5_02_left_16.trc.trc
DataRate	CameraRate	NumFrames	NumMarkers	Units	OrigDataRate	OrigDataStartFrame	OrigNumFrames
79.545454545455	79.545454545455	7	33	mm	79.545454545455	53	       141
Frame#	Time	Sacral			L.Shoulder			Chest			R.Shoulder			Neck			R.ASIS			L.ASIS			R.Thigh.Superior			R.Thigh.Lateral			R.Thigh.Inferior			R.Patella			L.Thigh.Superior			L.Thigh.Lateral			L.Thigh.Inferior			L.Patella			L.Shank.Superior			L.Shank.Lateral			L.Shank.Inferior			R.Shank.Superior			R.Shank.Lateral			R.Shank.Inferior			R.Heel			R.Midfoot.Superior			R.Midfoot.Lateral			R.Toe			L.Heel			L.Midfoot.Lateral			L.Midfoot.Superior			L.Toe			L.Elbow			L.Wrist			R.Elbow			R.Wrist			
		X1	Y1	Z1	X2	Y2	Z2	X3	Y3	Z3	X4	Y4	Z4	X5	Y5	Z5	X6	Y6	Z6	X7	Y7	Z7	X8	Y8	Z8	X9	Y9	Z9	X10	Y10	Z10	X11	Y11	Z11	X12	Y12	Z12	X13	Y13	Z13	X14	Y14	Z14	X15	Y15	Z15	X16	Y16	Z16	X17	Y17	Z17	X18	Y18	Z18	X19	Y19	Z19	X20	Y20	Z20	X21	Y21	Z21	X22	Y22	Z22	X23	Y23	Z23	X24	Y24	Z24	X25	Y25	Z25	X26	Y26	Z26	X27	Y27	Z27	X28	Y28	Z28	X29	Y29	Z29	X30	Y30	Z30	X31	Y31	Z31	X32	Y32	Z32	X33	Y33	Z33	

53	20.913714285714	587.555554352031	1009.208259081040	474.774444696068	776.247422966283	1436.681039919753	298.975197738987	876.179072019284	1362.178252023417	460.117724706900	791.630090832128	1435.753081097116	634.902268360166	773.813190601807	1495.304416465174	451.146008523138	811.284743389359	942.000887366382	594.874036883293	804.988490575235	959.239049945395	320.544752396922	878.825139568977	757.661298610287	571.271140633359	822.380476801854	641.085639372563	641.144186686048	910.652840381148	591.672840127487	566.372992883988	914.721181729916	477.439667456298	589.146271854021	854.384956474391	751.115266301834	352.078306832122	769.039233891077	633.230729470937	296.945903465056	855.445402403242	557.902806542433	361.656231836730	857.872129141503	486.226222972720	373.114969462188	826.876846754777	413.561591506274	367.323559445222	734.574112371745	301.992084189446	316.353399519389	776.989661188871	190.556739336558	390.945394439463	832.248226658731	410.313823073384	594.529839929333	706.644941442410	383.064167484389	652.700686004323	682.654569629438	275.836290965511	604.452316707628	479.304391934316	243.299625356589	572.213883104720	633.878481515527	155.185110471326	615.732671881047	524.194110245526	172.001987707356	645.333057102624	678.138121415412	33.679439189202	641.508437401685	641.327494273674	38.198899138691	433.265255366981	715.690613788943	35.375304266486	353.130677071472	799.485038258808	95.131592806733	380.463160412913	927.783604307140	41.158820401936	352.335048038719	767.603559132234	1088.603492400605	160.916281859351	957.695129959112	908.612557010828	158.749985811275	758.702683035303	1086.099104722590	743.956568673867	889.022626693175	860.651345871368	735.362238263208	
54	20.926285714286	587.121170048660	1009.504526838883	473.296227686026	777.544682402890	1436.961428030946	297.683492488689	876.326302568843	1362.316958569050	459.484247320047	790.714834875564	1435.942343130558	633.801590864646	774.323346355879	1495.608631241853	449.858751122648	810.648193553304	942.785033775302	593.937482302837	805.182820754834	959.592080446507	319.435409036471	881.135239423310	761.189648961957	569.563396261924	827.673354417287	643.676519160129	639.990996263419	916.740869619720	595.955362975206	564.982468415527	923.153891202574	481.397878793114	587.760824148490	852.849952160092	750.340328017337	350.429957824232	766.083476142433	633.125755933399	296.152541531283	852.000086297974	557.145096655966	360.572984236099	853.901659497809	485.617105025083	372.325108021852	822.529780702484	413.164944335725	366.673309241739	729.625277671538	302.026121914004	315.886077235510	771.446026211475	190.450940412245	390.603297961317	840.857433146515	413.537222385399	593.211590016797	715.252616367179	386.038238619845	651.291571560232	691.519851315963	278.711730250085	603.154644289423	488.413723334891	245.783062834367	570.975040251709	643.197125569051	157.865815814492	614.258748646075	533.510481075006	174.506555908292	644.033591199040	687.427170004984	35.288462223670	639.944729039290	635.028903883986	38.387029674358	433.135886273893	709.428309459786	35.419285246554	353.064858605000	793.295895068405	95.094555610688	380.308698094346	921.525232147147	40.888831827455	352.224377961368	775.211816691608	1089.578045442136	158.147515908450	972.279379759959	917.585113736949	156.833158616387	750.048958982583	1086.831230408307	741.871828405914	864.683613251120	852.272833889909	735.724368891215	
55	20.938857142857	586.712244867010	1009.969519882425	471.944577427292	778.886837966469	1437.380715112122	296.555392592410	876.523984783310	1362.550449087567	458.976453204632	789.916365020411	1436.233205507451	632.856835498387	774.847004027750	1496.009959374547	448.752005404251	810.007352107888	943.657947024502	593.073797275371	805.364123179070	959.994449436254	318.434749407127	883.084611572465	764.663690925163	568.065218979990	832.365112716765	646.370637612808	639.005137345334	922.140070890343	600.235766244292	563.759997565528	930.894178289829	485.542752315220	586.547214174330	851.195259213385	749.598226989523	349.045533295105	763.011346886780	633.106731031824	295.496416643865	848.328425520925	556.429745217378	359.682402175249	849.650113221808	485.055211340364	371.685087829807	817.964373055660	412.856318495445	366.115971760411	724.507765290883	302.116659421948	315.486499876667	765.809617601276	190.402813865580	390.289779547571	849.125620774097	416.714035247883	592.019982402046	723.733128627701	388.118817736573	650.003144945609	700.919571952189	280.588360469922	601.876724649610	498.138366897387	245.622626165509	569.810836972678	653.900272374702	159.373647791659	612.702418875134	544.138997722144	174.824036046157	642.757369064034	699.278062077184	36.668954118582	638.246369466469	628.717171757899	38.586917812213	433.006760127558	703.160197341768	35.469603905618	353.004863903452	787.097076168442	95.071300022405	380.152190877818	915.253360455057	40.645526688422	352.117789187542	782.503516938090	1090.763404313384	155.753488975807	986.135371035043	926.949833034927	155.277356803552	741.458901571418	1087.935379543826	739.966637861513	840.443769833280	845.709133167941	735.818499496457	
56	20.951428571429	586.318400205580	1010.600349414641	470.695689161231	780.285987524551	1437.922186031040	295.588172660200	876.779726805775	1362.864071299307	458.595135200428	789.238836067782	1436.619270294738	632.060950745602	775.387933040914	1496.496639890504	447.822144008420	809.349051723090	944.595030075581	592.287361597133	805.508051429558	960.422124148325	317.563044395052	884.689224733511	768.037060225948	566.779896097182	836.483841300874	649.108063376833	638.199561268619	926.855014365866	604.429061346244	562.696944374478	937.917323377008	489.801256212116	585.519989544702	849.411765698296	748.886207570610	347.965219925592	759.832501725460	633.180185831147	294.961536193660	844.416023614848	555.758508637055	358.987941565178	845.089503548065	484.539289264299	371.189750812858	813.167287589594	412.636760227603	365.643498124899	719.217342738353	302.257532352204	315.144991246518	760.075068069773	190.410085051565	390.003646428606	857.046475240556	419.775078106032	590.970873956918	732.103098394741	389.236416664217	648.858589624743	710.879968066712	281.412063238930	600.649971177476	508.568019687552	242.873083630922	568.728833880594	665.987876467987	159.647413583890	611.143750856207	556.085106529487	172.992484333775	641.545008464723	713.591074458838	37.632885713161	636.538496544678	622.393800674897	38.796049363543	432.878141228124	696.885805673057	35.525533577261	352.949653064662	780.887785966442	95.062391401925	379.994424602623	908.969013086976	40.431053748375	352.016321358844	789.434872226613	1092.123404154078	153.726713010938	999.214611765292	936.637332506926	154.077567957988	732.911354333775	1089.405585366175	738.236274421406	816.582470260285	840.948578171521	735.657650515423	
57	20.964000000000	585.924824726510	1011.384335300714	469.527798512064	781.748441771350	1438.557720274995	294.778559540787	877.096828986487	1363.237179552612	458.342211954123	788.678103387889	1437.087175111764	631.403168580979	775.950418094011	1497.049287153707	447.061533440859	808.663427958140	945.567851700538	591.591404401688	805.593510829559	960.850261010492	316.841551527865	885.961123625464	771.260952999058	565.703862410726	840.058384939969	651.822277377200	637.579390777790	930.885681836959	608.448898835294	561.778809875668	944.194191831115	494.097483234219	584.685298862927	847.496719589116	748.197097696166	347.207785546315	756.555922243701	633.344251792644	294.528518428080	840.257706762452	555.128914171129	358.479920102884	840.207367652927	484.066958499178	370.826840213498	808.134465050665	412.502120537679	365.244172630346	713.755917197839	302.440199953200	314.850722665604	754.241725031194	190.468105215365	389.742967564108	864.606322072807	422.660952732169	590.076768152044	740.379656976279	389.361188554234	647.871651115610	721.417287648399	281.179658390781	599.506752001027	519.813494850063	237.660122853773	567.734860547506	679.440475293229	158.702565066287	609.661201092278	569.359759452044	169.132423729262	640.438339367076	730.218435805274	38.076501840168	634.944960000264	616.061281490042	39.011251940461	432.750541502722	690.604945753076	35.586034607340	352.898271115527	774.668091179766	95.067910640852	379.836339259142	902.673805969633	40.246204727507	351.920740804755	795.977336453743	1093.610889128473	152.050850569572	1011.481147680802	946.561930051648	153.224784955158	724.388581202669	1091.229179594479	736.673608997870	793.344222480292	837.911799546929	735.278225005563	
58	20.976571428571	585.515247648697	1012.299685009765	468.422776536516	783.275453209666	1439.250227927868	294.122758622659	877.475335139243	1363.644339219940	458.219850698927	788.224320634473	1437.617970856798	630.869390330852	776.540044455783	1497.642301051556	446.458663915581	807.943901422320	946.545322698873	591.004287880207	805.606905998322	961.254773734822	316.288691856365	886.905922139040	774.282611676829	564.829328035258	843.107189622333	654.441652919327	637.141768265158	934.223603753625	612.208570682200	560.989272892929	949.689350540535	498.353907037772	584.041086480236	845.454285254030	747.519574597852	346.770338946083	753.189027899654	633.589132952446	294.177227232081	835.855982403654	554.534341462959	358.138938390732	835.006422315133	483.635265155861	370.580530098947	802.869410569950	412.443304302712	364.905364226761	708.130106284305	302.654240512689	314.593433387491	748.312983852004	190.570245669435	389.506278314353	871.781422962497	425.323392395224	589.346734049552	748.579511046959	388.500063317054	647.051332303461	732.537557037211	279.936243263451	598.480361184588	532.000168761111	230.165138903923	566.838561409378	694.224317558104	156.626925136291	608.325662811456	583.982966304392	163.430252337470	639.479376998649	748.984987415730	37.997778355977	633.574557764916	609.722608198145	39.228397599640	432.624964266442	684.317561465728	35.649651656733	352.850101648595	768.438714618042	95.087235877504	379.679468278716	896.369692280296	40.090481356970	351.831813956459	802.116589799497	1095.171007918791	150.702783257583	1022.910878867093	956.622891185344	152.706887719041	715.881368031674	1093.388719944450	735.270410173107	770.929604391068	836.463054122721	734.735647100036	
59	20.989142857143	585.077084243881	1013.315800246698	467.367953894497	784.864577776061	1439.956758590871	293.616665925592	877.913294701886	1364.056523435175	458.229716476414	787.864862956961	1438.188515669259	630.443411075711	777.164116409620	1498.245584256236	445.999010107104	807.187417390295	947.494890785318	590.546022827508	805.543444191988	961.612874095343	315.917344926875	887.521998636569	777.044607348466	564.146870159002	845.629672706137	656.891065081569	636.876064809136	936.850363326602	615.622241794458	560.314046300833	954.362071584565	502.492481090637	583.577219021288	843.294971032343	746.838631785621	346.630870837173	749.736442980315	633.898594133986	293.889423569825	831.218643076457	553.964518608317	357.939858282293	829.501327139337	483.240257885314	370.433918552010	797.380750337124	412.447268753910	364.615853051795	702.349200671434	302.887983698643	314.364836544234	742.294939918370	190.708307838133	389.293523759933	878.537426981378	427.725559654963	588.785258016681	756.719259684763	386.691513484326	646.406646220407	744.236547544537	277.769839938847	597.603568619782	545.260620776812	220.612903080750	566.056087096355	710.294740025039	153.571692232374	607.196311927753	599.983150134607	156.122220849906	638.707706135482	769.702366137547	37.497600459414	632.511702015515	603.380809840850	39.442098880631	432.503140852333	678.023544440122	35.714358578993	352.805080348487	762.200619299875	95.118897609561	379.526258185746	890.058636059013	39.962494284362	351.750477908001	807.850577827944	1096.745065135621	149.654733409647	1033.490667011503	966.706598392278	152.509531296047	707.393327393759	1095.863183667345	734.018816467948	749.492894500303	836.424898311385	734.097973961530	
